<svg width="311" height="311" viewBox="0 0 311 311" fill="none" xmlns="http://www.w3.org/2000/svg">
<rect width="311" height="311" rx="15" fill="white"/>
<path d="M146.812 156L154.998 142.091L163.184 156H146.812ZM154.998 154.376C155.324 154.376 155.599 154.261 155.825 154.032C156.054 153.803 156.169 153.527 156.169 153.205C156.169 152.879 156.054 152.601 155.825 152.372C155.599 152.142 155.324 152.028 154.998 152.028C154.676 152.028 154.4 152.142 154.171 152.372C153.941 152.601 153.827 152.879 153.827 153.205C153.827 153.527 153.941 153.803 154.171 154.032C154.4 154.261 154.676 154.376 154.998 154.376ZM154.092 150.772H155.903L155.988 146.727H154.008L154.092 150.772ZM135.439 170V157.636H143.77V159.792H138.053V162.738H143.341V164.893H138.053V167.845H143.794V170H135.439ZM145.8 170V160.727H148.293V162.345H148.39C148.559 161.77 148.842 161.335 149.241 161.041C149.639 160.743 150.098 160.594 150.617 160.594C150.746 160.594 150.885 160.603 151.034 160.619C151.183 160.635 151.313 160.657 151.426 160.685V162.967C151.305 162.931 151.138 162.899 150.925 162.87C150.712 162.842 150.517 162.828 150.339 162.828C149.961 162.828 149.623 162.911 149.325 163.076C149.031 163.237 148.798 163.462 148.625 163.752C148.456 164.042 148.371 164.376 148.371 164.754V170H145.8ZM152.756 170V160.727H155.249V162.345H155.346C155.515 161.77 155.798 161.335 156.197 161.041C156.595 160.743 157.054 160.594 157.573 160.594C157.702 160.594 157.841 160.603 157.99 160.619C158.139 160.635 158.27 160.657 158.382 160.685V162.967C158.261 162.931 158.094 162.899 157.881 162.87C157.668 162.842 157.473 162.828 157.296 162.828C156.917 162.828 156.579 162.911 156.281 163.076C155.988 163.237 155.754 163.462 155.581 163.752C155.412 164.042 155.328 164.376 155.328 164.754V170H152.756ZM163.47 170.181C162.532 170.181 161.721 169.982 161.037 169.583C160.357 169.181 159.832 168.622 159.461 167.905C159.091 167.185 158.906 166.35 158.906 165.4C158.906 164.442 159.091 163.605 159.461 162.888C159.832 162.168 160.357 161.609 161.037 161.21C161.721 160.808 162.532 160.607 163.47 160.607C164.408 160.607 165.217 160.808 165.897 161.21C166.581 161.609 167.108 162.168 167.478 162.888C167.849 163.605 168.034 164.442 168.034 165.4C168.034 166.35 167.849 167.185 167.478 167.905C167.108 168.622 166.581 169.181 165.897 169.583C165.217 169.982 164.408 170.181 163.47 170.181ZM163.482 168.189C163.908 168.189 164.265 168.068 164.55 167.827C164.836 167.581 165.051 167.247 165.196 166.825C165.345 166.402 165.42 165.921 165.42 165.382C165.42 164.842 165.345 164.362 165.196 163.939C165.051 163.516 164.836 163.182 164.55 162.937C164.265 162.691 163.908 162.569 163.482 162.569C163.051 162.569 162.689 162.691 162.395 162.937C162.105 163.182 161.886 163.516 161.737 163.939C161.592 164.362 161.52 164.842 161.52 165.382C161.52 165.921 161.592 166.402 161.737 166.825C161.886 167.247 162.105 167.581 162.395 167.827C162.689 168.068 163.051 168.189 163.482 168.189ZM169.706 170V160.727H172.199V162.345H172.296C172.465 161.77 172.749 161.335 173.147 161.041C173.545 160.743 174.004 160.594 174.523 160.594C174.652 160.594 174.791 160.603 174.94 160.619C175.089 160.635 175.22 160.657 175.332 160.685V162.967C175.212 162.931 175.045 162.899 174.831 162.87C174.618 162.842 174.423 162.828 174.246 162.828C173.867 162.828 173.529 162.911 173.232 163.076C172.938 163.237 172.704 163.462 172.531 163.752C172.362 164.042 172.278 164.376 172.278 164.754V170H169.706Z" fill="black"/>
<circle cx="12" cy="10" r="5" fill="#D9D9D9"/>
<circle cx="297" cy="10" r="5" fill="#D9D9D9"/>
<circle cx="297" cy="300" r="5" fill="#D9D9D9"/>
<circle cx="12" cy="300" r="5" fill="#D9D9D9"/>
<circle cx="155" cy="215" r="5" fill="#D9D9D9"/>
<circle cx="155" cy="99" r="5" fill="#D9D9D9"/>
</svg>
