<svg width="182" height="33" viewBox="0 0 182 33" fill="none" xmlns="http://www.w3.org/2000/svg">
<path d="M6.9 2.14C7.06 1.62 7.28 1.25 7.56 1.03C7.84 0.809999 8.24 0.699999 8.76 0.699999H44.67C46.37 0.699999 47.48 1.08 48 1.84C48.54 2.58 48.57 3.8 48.09 5.5L44.73 17.2C44.25 18.9 43.52 20.13 42.54 20.89C41.58 21.63 40.25 22 38.55 22H2.64C2.12 22 1.78 21.89 1.62 21.67C1.46 21.45 1.46 21.08 1.62 20.56L6.9 2.14ZM22.98 19.36C23.66 19.36 24.19 19.21 24.57 18.91C24.97 18.61 25.27 18.12 25.47 17.44L28.95 5.23C29.15 4.55 29.14 4.06 28.92 3.76C28.72 3.46 28.28 3.31 27.6 3.31H26.25C25.91 3.31 25.7 3.47 25.62 3.79L21.3 18.88C21.22 19.2 21.33 19.36 21.63 19.36H22.98ZM69.9405 9.76C70.6205 9.76 71.1505 9.61 71.5305 9.31C71.9105 9.01 72.2005 8.52 72.4005 7.84L73.1505 5.23C73.3505 4.55 73.3405 4.06 73.1205 3.76C72.9205 3.46 72.4805 3.31 71.8005 3.31H70.4505C70.1105 3.31 69.9005 3.47 69.8205 3.79L68.2605 9.28C68.1405 9.6 68.2505 9.76 68.5905 9.76H69.9405ZM51.3105 2.62C51.5105 1.94 51.8005 1.45 52.1805 1.15C52.5805 0.849999 53.1205 0.699999 53.8005 0.699999H88.0905C89.7905 0.699999 90.9005 1.08 91.4205 1.84C91.9605 2.58 91.9905 3.8 91.5105 5.5L91.2705 6.34C90.7905 8.04 90.0605 9.27 89.0805 10.03C88.1205 10.77 86.7905 11.14 85.0905 11.14H83.5305C84.2105 11.14 84.8105 11.21 85.3305 11.35C85.8705 11.47 86.3205 11.67 86.6805 11.95C87.0405 12.23 87.3105 12.6 87.4906 13.06C87.6906 13.52 87.7805 14.07 87.7605 14.71L87.5505 20.89C87.5305 21.31 87.4705 21.6 87.3705 21.76C87.2705 21.92 87.0205 22 86.6205 22H70.6605C69.9805 22 69.4505 21.87 69.0705 21.61C68.7105 21.33 68.5505 20.86 68.5905 20.2L69.0105 13.45C69.0305 13.13 68.9405 12.9 68.7405 12.76C68.5605 12.62 68.3005 12.55 67.9605 12.55H67.7805C67.4605 12.55 67.2605 12.71 67.1805 13.03L65.1405 20.08C64.9405 20.76 64.6505 21.25 64.2705 21.55C63.8905 21.85 63.3605 22 62.6805 22H47.6805C47.0005 22 46.5505 21.85 46.3305 21.55C46.1105 21.25 46.1005 20.76 46.3005 20.08L51.3105 2.62ZM93.9185 5.5C94.3985 3.8 95.1185 2.58 96.0785 1.84C97.0585 1.08 98.3985 0.699999 100.099 0.699999H132.649C134.349 0.699999 135.459 1.08 135.979 1.84C136.519 2.58 136.549 3.8 136.069 5.5L132.709 17.2C132.229 18.9 131.499 20.13 130.519 20.89C129.559 21.63 128.229 22 126.529 22H93.9785C92.2785 22 91.1585 21.63 90.6185 20.89C90.0985 20.13 90.0785 18.9 90.5585 17.2L93.9185 5.5ZM109.729 17.26C109.529 17.94 109.579 18.46 109.879 18.82C110.179 19.16 110.559 19.33 111.019 19.33C111.479 19.33 111.949 19.16 112.429 18.82C112.929 18.48 113.279 17.96 113.479 17.26L116.869 5.44C117.009 4.96 117.029 4.57 116.929 4.27C116.849 3.95 116.689 3.71 116.449 3.55C116.209 3.39 115.929 3.32 115.609 3.34C115.289 3.34 114.959 3.42 114.619 3.58C114.299 3.72 113.999 3.95 113.719 4.27C113.459 4.59 113.259 4.98 113.119 5.44L109.729 17.26ZM139.289 2.62C139.489 1.94 139.779 1.45 140.159 1.15C140.559 0.849999 141.099 0.699999 141.779 0.699999H177.209C178.909 0.699999 180.019 1.08 180.539 1.84C181.079 2.58 181.109 3.8 180.629 5.5L179.189 10.45C178.709 12.13 177.979 13.35 176.999 14.11C176.039 14.87 174.719 15.25 173.039 15.25H155.849C155.209 15.25 154.789 15.57 154.589 16.21L153.479 20.08C153.279 20.76 152.989 21.25 152.609 21.55C152.229 21.85 151.699 22 151.019 22H135.659C134.979 22 134.529 21.85 134.309 21.55C134.089 21.25 134.079 20.76 134.279 20.08L139.289 2.62ZM157.409 12.97C158.089 12.97 158.619 12.82 158.999 12.52C159.399 12.22 159.699 11.73 159.899 11.05L161.549 5.23C161.749 4.55 161.739 4.06 161.519 3.76C161.319 3.46 160.879 3.31 160.199 3.31H158.789C158.449 3.31 158.239 3.47 158.159 3.79L155.669 12.49C155.589 12.81 155.699 12.97 155.999 12.97H157.409ZM2.91 24.75C3.15 23.9 3.51 23.29 3.99 22.92C4.48 22.54 5.15 22.35 6 22.35H22.275C23.125 22.35 23.68 22.54 23.94 22.92C24.21 23.29 24.225 23.9 23.985 24.75L21.885 32.04C21.785 32.38 21.64 32.625 21.45 32.775C21.26 32.925 20.995 33 20.655 33H12.975C12.635 33 12.41 32.925 12.3 32.775C12.19 32.625 12.185 32.38 12.285 32.04L13.095 29.25C13.185 28.93 13.07 28.77 12.75 28.77H11.835C11.515 28.77 11.31 28.93 11.22 29.25L10.41 32.04C10.31 32.38 10.165 32.625 9.975 32.775C9.785 32.925 9.52 33 9.18 33H1.5C1.16 33 0.935 32.925 0.825 32.775C0.715 32.625 0.71 32.38 0.81 32.04L2.91 24.75ZM13.14 27.42C13.46 27.42 13.665 27.26 13.755 26.94L14.385 24.72C14.485 24.37 14.46 24.11 14.31 23.94C14.17 23.77 13.98 23.685 13.74 23.685C13.51 23.685 13.27 23.77 13.02 23.94C12.78 24.11 12.61 24.37 12.51 24.72L11.88 26.94C11.79 27.26 11.905 27.42 12.225 27.42H13.14ZM24.9084 25.455C24.9984 25.155 25.1284 24.94 25.2984 24.81C25.4784 24.67 25.7184 24.6 26.0184 24.6H32.9184C33.1384 24.6 33.3084 24.68 33.4284 24.84L33.5034 24.945C33.7134 24.815 33.9084 24.725 34.0884 24.675C34.2784 24.625 34.5034 24.6 34.7634 24.6H41.3934C41.9934 24.6 42.3884 24.735 42.5784 25.005C42.7684 25.275 42.7784 25.71 42.6084 26.31L42.0834 28.14C41.9934 28.44 41.8634 28.66 41.6934 28.8C41.5234 28.93 41.2884 28.995 40.9884 28.995H34.8084C34.5084 28.995 34.3084 28.93 34.2084 28.8C34.1084 28.66 34.1034 28.44 34.1934 28.14L34.6584 26.505C34.7384 26.225 34.7184 26.015 34.5984 25.875C34.4884 25.735 34.3384 25.665 34.1484 25.665C33.9684 25.665 33.7784 25.735 33.5784 25.875C33.3784 26.015 33.2384 26.225 33.1584 26.505L31.5384 32.145C31.4584 32.445 31.3284 32.665 31.1484 32.805C30.9784 32.935 30.7434 33 30.4434 33H23.6034C23.3034 33 23.1034 32.935 23.0034 32.805C22.9134 32.665 22.9084 32.445 22.9884 32.145L24.9084 25.455ZM43.357 26.73C43.567 25.98 43.887 25.44 44.317 25.11C44.757 24.77 45.352 24.6 46.102 24.6H60.862C61.462 24.6 61.857 24.735 62.047 25.005C62.237 25.275 62.247 25.71 62.077 26.31L61.762 27.42C61.672 27.72 61.537 27.94 61.357 28.08C61.187 28.21 60.952 28.275 60.652 28.275H53.812C53.512 28.275 53.312 28.21 53.212 28.08C53.122 27.94 53.122 27.72 53.212 27.42L53.482 26.475C53.562 26.195 53.542 25.99 53.422 25.86C53.302 25.72 53.147 25.655 52.957 25.665C52.767 25.665 52.572 25.735 52.372 25.875C52.182 26.015 52.047 26.22 51.967 26.49L50.647 31.095C50.567 31.375 50.587 31.585 50.707 31.725C50.827 31.865 50.977 31.935 51.157 31.935C51.347 31.935 51.537 31.87 51.727 31.74C51.927 31.6 52.067 31.395 52.147 31.125L52.417 30.18C52.497 29.88 52.622 29.665 52.792 29.535C52.972 29.395 53.212 29.325 53.512 29.325H60.352C60.652 29.325 60.847 29.395 60.937 29.535C61.037 29.665 61.047 29.88 60.967 30.18L60.652 31.29C60.482 31.89 60.222 32.325 59.872 32.595C59.522 32.865 59.047 33 58.447 33H43.687C42.937 33 42.442 32.835 42.202 32.505C41.962 32.165 41.952 31.62 42.172 30.87L43.357 26.73ZM63.2817 26.31C63.4517 25.71 63.7117 25.275 64.0617 25.005C64.4117 24.735 64.8867 24.6 65.4867 24.6H72.4767C72.8167 24.6 73.0867 24.64 73.2867 24.72C73.4967 24.79 73.6467 24.965 73.7367 25.245L73.9617 24.975C74.1717 24.725 74.4167 24.6 74.6967 24.6H81.5217C81.8217 24.6 82.0167 24.67 82.1067 24.81C82.2067 24.94 82.2117 25.155 82.1217 25.455L80.2017 32.145C80.1217 32.445 79.9917 32.665 79.8117 32.805C79.6417 32.935 79.4067 33 79.1067 33H72.2817C72.0017 33 71.8317 32.875 71.7717 32.625L71.6967 32.355C71.4467 32.635 71.1967 32.815 70.9467 32.895C70.6967 32.965 70.4017 33 70.0617 33H63.0717C62.4717 33 62.0767 32.865 61.8867 32.595C61.6967 32.325 61.6867 31.89 61.8567 31.29L63.2817 26.31ZM70.4517 31.095C70.3717 31.375 70.3917 31.585 70.5117 31.725C70.6317 31.865 70.7817 31.935 70.9617 31.935C71.1517 31.935 71.3417 31.865 71.5317 31.725C71.7317 31.585 71.8717 31.375 71.9517 31.095L73.2717 26.505C73.3517 26.225 73.3317 26.015 73.2117 25.875C73.1017 25.735 72.9517 25.665 72.7617 25.665C72.5817 25.665 72.3917 25.735 72.1917 25.875C71.9917 26.015 71.8517 26.225 71.7717 26.505L70.4517 31.095ZM82.9664 26.73C83.1764 25.98 83.4964 25.44 83.9264 25.11C84.3664 24.77 84.9614 24.6 85.7114 24.6H92.5814C92.8114 24.6 92.9914 24.62 93.1214 24.66C93.2614 24.7 93.4014 24.775 93.5414 24.885L94.0214 23.205C94.1114 22.905 94.2414 22.69 94.4114 22.56C94.5914 22.42 94.8314 22.35 95.1314 22.35H101.971C102.261 22.35 102.456 22.42 102.556 22.56C102.656 22.69 102.661 22.905 102.571 23.205L100.006 32.145C99.9264 32.445 99.7964 32.665 99.6164 32.805C99.4464 32.935 99.2114 33 98.9114 33H92.0864C91.8064 33 91.5964 32.9 91.4564 32.7L91.4264 32.655C91.2164 32.785 91.0164 32.875 90.8264 32.925C90.6464 32.975 90.4264 33 90.1664 33H83.2964C82.5464 33 82.0514 32.835 81.8114 32.505C81.5714 32.165 81.5614 31.62 81.7814 30.87L82.9664 26.73ZM90.2564 31.095C90.1764 31.375 90.1964 31.585 90.3164 31.725C90.4364 31.865 90.5864 31.935 90.7664 31.935C90.9564 31.935 91.1464 31.865 91.3364 31.725C91.5364 31.585 91.6764 31.375 91.7564 31.095L93.0764 26.505C93.1564 26.225 93.1364 26.015 93.0164 25.875C92.9064 25.735 92.7564 25.665 92.5664 25.665C92.3864 25.665 92.1964 25.735 91.9964 25.875C91.7964 26.015 91.6564 26.225 91.5764 26.505L90.2564 31.095ZM102.771 26.73C102.981 25.98 103.301 25.44 103.731 25.11C104.171 24.77 104.766 24.6 105.516 24.6H120.276C120.876 24.6 121.271 24.735 121.461 25.005C121.651 25.275 121.661 25.71 121.491 26.31L121.131 27.54C120.961 28.14 120.701 28.575 120.351 28.845C120.011 29.115 119.541 29.25 118.941 29.25H110.811C110.671 29.25 110.581 29.32 110.541 29.46L110.061 31.095C109.981 31.375 110.001 31.585 110.121 31.725C110.241 31.865 110.391 31.935 110.571 31.935C110.761 31.935 110.951 31.87 111.141 31.74C111.341 31.6 111.481 31.395 111.561 31.125L111.666 30.75C111.776 30.35 112.031 30.15 112.431 30.15H119.376C119.676 30.15 119.876 30.22 119.976 30.36C120.076 30.49 120.081 30.705 119.991 31.005L119.916 31.29C119.746 31.89 119.486 32.325 119.136 32.595C118.786 32.865 118.311 33 117.711 33H103.101C102.351 33 101.856 32.835 101.616 32.505C101.376 32.165 101.366 31.62 101.586 30.87L102.771 26.73ZM112.146 28.35C112.286 28.35 112.376 28.28 112.416 28.14L112.881 26.505C112.961 26.225 112.941 26.015 112.821 25.875C112.711 25.735 112.561 25.665 112.371 25.665C112.191 25.665 112.001 25.735 111.801 25.875C111.601 26.015 111.461 26.225 111.381 26.505L110.916 28.14C110.876 28.28 110.926 28.35 111.066 28.35H112.146Z" fill="white"/>
</svg>
