<svg width="402" height="22" viewBox="0 0 402 22" fill="none" xmlns="http://www.w3.org/2000/svg">
<path d="M6.32578 2.14C6.48578 1.62 6.70578 1.25 6.98578 1.03C7.26578 0.809999 7.66578 0.699999 8.18578 0.699999H44.0958C45.7958 0.699999 46.9058 1.08 47.4258 1.84C47.9658 2.58 47.9958 3.8 47.5158 5.5L44.1558 17.2C43.6758 18.9 42.9458 20.13 41.9658 20.89C41.0058 21.63 39.6758 22 37.9758 22H2.06578C1.54578 22 1.20578 21.89 1.04578 21.67C0.885781 21.45 0.885781 21.08 1.04578 20.56L6.32578 2.14ZM22.4058 19.36C23.0858 19.36 23.6158 19.21 23.9958 18.91C24.3958 18.61 24.6958 18.12 24.8958 17.44L28.3758 5.23C28.5758 4.55 28.5658 4.06 28.3458 3.76C28.1458 3.46 27.7058 3.31 27.0258 3.31H25.6758C25.3358 3.31 25.1258 3.47 25.0458 3.79L20.7258 18.88C20.6458 19.2 20.7558 19.36 21.0558 19.36H22.4058ZM69.3663 9.76C70.0463 9.76 70.5763 9.61 70.9563 9.31C71.3363 9.01 71.6263 8.52 71.8263 7.84L72.5763 5.23C72.7763 4.55 72.7663 4.06 72.5463 3.76C72.3463 3.46 71.9063 3.31 71.2263 3.31H69.8763C69.5363 3.31 69.3263 3.47 69.2463 3.79L67.6863 9.28C67.5663 9.6 67.6763 9.76 68.0163 9.76H69.3663ZM50.7363 2.62C50.9363 1.94 51.2263 1.45 51.6063 1.15C52.0063 0.849999 52.5463 0.699999 53.2263 0.699999H87.5163C89.2163 0.699999 90.3263 1.08 90.8463 1.84C91.3863 2.58 91.4163 3.8 90.9363 5.5L90.6963 6.34C90.2163 8.04 89.4863 9.27 88.5063 10.03C87.5463 10.77 86.2163 11.14 84.5163 11.14H82.9563C83.6363 11.14 84.2363 11.21 84.7563 11.35C85.2963 11.47 85.7463 11.67 86.1063 11.95C86.4663 12.23 86.7363 12.6 86.9163 13.06C87.1163 13.52 87.2063 14.07 87.1863 14.71L86.9763 20.89C86.9563 21.31 86.8963 21.6 86.7963 21.76C86.6963 21.92 86.4463 22 86.0463 22H70.0863C69.4063 22 68.8763 21.87 68.4963 21.61C68.1363 21.33 67.9763 20.86 68.0163 20.2L68.4363 13.45C68.4563 13.13 68.3663 12.9 68.1663 12.76C67.9863 12.62 67.7263 12.55 67.3863 12.55H67.2063C66.8863 12.55 66.6863 12.71 66.6063 13.03L64.5663 20.08C64.3663 20.76 64.0763 21.25 63.6963 21.55C63.3163 21.85 62.7863 22 62.1063 22H47.1063C46.4263 22 45.9763 21.85 45.7563 21.55C45.5363 21.25 45.5263 20.76 45.7263 20.08L50.7363 2.62ZM93.3443 5.5C93.8243 3.8 94.5443 2.58 95.5043 1.84C96.4843 1.08 97.8243 0.699999 99.5243 0.699999H132.074C133.774 0.699999 134.884 1.08 135.404 1.84C135.944 2.58 135.974 3.8 135.494 5.5L132.134 17.2C131.654 18.9 130.924 20.13 129.944 20.89C128.984 21.63 127.654 22 125.954 22H93.4043C91.7043 22 90.5843 21.63 90.0443 20.89C89.5243 20.13 89.5043 18.9 89.9843 17.2L93.3443 5.5ZM109.154 17.26C108.954 17.94 109.004 18.46 109.304 18.82C109.604 19.16 109.984 19.33 110.444 19.33C110.904 19.33 111.374 19.16 111.854 18.82C112.354 18.48 112.704 17.96 112.904 17.26L116.294 5.44C116.434 4.96 116.454 4.57 116.354 4.27C116.274 3.95 116.114 3.71 115.874 3.55C115.634 3.39 115.354 3.32 115.034 3.34C114.714 3.34 114.384 3.42 114.044 3.58C113.724 3.72 113.424 3.95 113.144 4.27C112.884 4.59 112.684 4.98 112.544 5.44L109.154 17.26ZM138.715 2.62C138.915 1.94 139.205 1.45 139.585 1.15C139.985 0.849999 140.525 0.699999 141.205 0.699999H176.635C178.335 0.699999 179.445 1.08 179.965 1.84C180.505 2.58 180.535 3.8 180.055 5.5L178.615 10.45C178.135 12.13 177.405 13.35 176.425 14.11C175.465 14.87 174.145 15.25 172.465 15.25H155.275C154.635 15.25 154.215 15.57 154.015 16.21L152.905 20.08C152.705 20.76 152.415 21.25 152.035 21.55C151.655 21.85 151.125 22 150.445 22H135.085C134.405 22 133.955 21.85 133.735 21.55C133.515 21.25 133.505 20.76 133.705 20.08L138.715 2.62ZM156.835 12.97C157.515 12.97 158.045 12.82 158.425 12.52C158.825 12.22 159.125 11.73 159.325 11.05L160.975 5.23C161.175 4.55 161.165 4.06 160.945 3.76C160.745 3.46 160.305 3.31 159.625 3.31H158.215C157.875 3.31 157.665 3.47 157.585 3.79L155.095 12.49C155.015 12.81 155.125 12.97 155.425 12.97H156.835ZM190.971 2.53C190.931 1.89 191.061 1.43 191.361 1.15C191.661 0.849999 192.151 0.699999 192.831 0.699999H208.011C208.691 0.699999 209.171 0.849999 209.451 1.15C209.751 1.43 209.881 1.9 209.841 2.56L209.271 14.47C209.191 15.79 209.491 15.79 210.171 14.47L216.441 2.56C216.781 1.9 217.181 1.43 217.641 1.15C218.101 0.849999 218.671 0.699999 219.351 0.699999H234.531C235.211 0.699999 235.611 0.849999 235.731 1.15C235.851 1.43 235.711 1.89 235.311 2.53L224.421 20.17C224.021 20.81 223.581 21.28 223.101 21.58C222.641 21.86 222.071 22 221.391 22H193.671C192.991 22 192.491 21.86 192.171 21.58C191.871 21.28 191.701 20.81 191.661 20.17L190.971 2.53ZM235.402 5.5C235.882 3.8 236.602 2.58 237.562 1.84C238.542 1.08 239.882 0.699999 241.582 0.699999H274.132C275.832 0.699999 276.942 1.08 277.462 1.84C278.002 2.58 278.032 3.8 277.552 5.5L273.352 20.08C273.152 20.76 272.862 21.25 272.482 21.55C272.102 21.85 271.572 22 270.892 22H255.532C254.852 22 254.402 21.85 254.182 21.55C253.962 21.25 253.952 20.76 254.152 20.08L255.772 14.5C255.952 13.86 255.722 13.54 255.082 13.54H253.252C252.612 13.54 252.202 13.86 252.022 14.5L250.402 20.08C250.202 20.76 249.912 21.25 249.532 21.55C249.152 21.85 248.622 22 247.942 22H232.582C231.902 22 231.452 21.85 231.232 21.55C231.012 21.25 231.002 20.76 231.202 20.08L235.402 5.5ZM255.862 10.84C256.502 10.84 256.912 10.52 257.092 9.88L258.352 5.44C258.552 4.74 258.502 4.22 258.202 3.88C257.922 3.54 257.542 3.37 257.062 3.37C256.602 3.37 256.122 3.54 255.622 3.88C255.142 4.22 254.802 4.74 254.602 5.44L253.342 9.88C253.162 10.52 253.392 10.84 254.032 10.84H255.862ZM280.629 2.62C280.829 1.94 281.119 1.45 281.499 1.15C281.899 0.849999 282.439 0.699999 283.119 0.699999H298.479C299.159 0.699999 299.599 0.849999 299.799 1.15C300.019 1.45 300.029 1.94 299.829 2.62L295.629 17.26C295.429 17.94 295.479 18.46 295.779 18.82C296.079 19.16 296.459 19.33 296.919 19.33C297.379 19.33 297.849 19.16 298.329 18.82C298.829 18.48 299.179 17.96 299.379 17.26L303.579 2.62C303.779 1.94 304.069 1.45 304.449 1.15C304.849 0.849999 305.389 0.699999 306.069 0.699999H321.429C322.109 0.699999 322.549 0.849999 322.749 1.15C322.969 1.45 322.979 1.94 322.779 2.62L318.609 17.2C318.129 18.9 317.399 20.13 316.419 20.89C315.459 21.63 314.129 22 312.429 22H279.879C278.179 22 277.059 21.63 276.519 20.89C275.999 20.13 275.979 18.9 276.459 17.2L280.629 2.62ZM325.189 2.62C325.389 1.94 325.679 1.45 326.059 1.15C326.459 0.849999 326.999 0.699999 327.679 0.699999H343.039C343.719 0.699999 344.159 0.849999 344.359 1.15C344.579 1.45 344.589 1.94 344.389 2.62L341.149 13.99C340.949 14.63 341.169 14.95 341.809 14.95H356.929C357.609 14.95 358.059 15.1 358.279 15.4C358.499 15.7 358.509 16.19 358.309 16.87L357.379 20.08C357.179 20.76 356.889 21.25 356.509 21.55C356.129 21.85 355.599 22 354.919 22H321.559C320.879 22 320.429 21.85 320.209 21.55C319.989 21.25 319.979 20.76 320.179 20.08L325.189 2.62ZM369.55 6.1C369.73 5.46 369.5 5.14 368.86 5.14H359.44C358.92 5.14 358.58 5.03 358.42 4.81C358.26 4.59 358.26 4.22 358.42 3.7L358.87 2.14C359.03 1.62 359.25 1.25 359.53 1.03C359.81 0.809999 360.21 0.699999 360.73 0.699999H400.69C401.21 0.699999 401.55 0.809999 401.71 1.03C401.87 1.25 401.87 1.62 401.71 2.14L401.26 3.7C401.1 4.22 400.88 4.59 400.6 4.81C400.32 5.03 399.92 5.14 399.4 5.14H389.98C389.34 5.14 388.93 5.46 388.75 6.1L384.73 20.08C384.53 20.76 384.24 21.25 383.86 21.55C383.48 21.85 382.95 22 382.27 22H366.91C366.23 22 365.78 21.85 365.56 21.55C365.34 21.25 365.33 20.76 365.53 20.08L369.55 6.1Z" fill="white"/>
</svg>
